<?xml version="1.0" encoding="UTF-8" standalone="no"?>
<!-- Generator: Adobe Illustrator 14.0.0, SVG Export Plug-In . SVG Version: 6.00 Build 43363)  -->

<svg
   xmlns:dc="http://purl.org/dc/elements/1.1/"
   xmlns:cc="http://creativecommons.org/ns#"
   xmlns:rdf="http://www.w3.org/1999/02/22-rdf-syntax-ns#"
   xmlns:svg="http://www.w3.org/2000/svg"
   xmlns="http://www.w3.org/2000/svg"
   xmlns:sodipodi="http://sodipodi.sourceforge.net/DTD/sodipodi-0.dtd"
   xmlns:inkscape="http://www.inkscape.org/namespaces/inkscape"
   version="1.1"
   id="Calque_1"
   x="0px"
   y="0px"
   width="400"
   height="200"
   viewBox="0 0 399.99998 199.99999"
   enable-background="new 0 0 700.465 218.988"
   xml:space="preserve"
   sodipodi:docname="burst-coupon-icon.svg"
   inkscape:version="0.92.1 r15371"
   inkscape:export-filename="E:\C++\BurstCoupon-git\trunk\Source\img\icon.png"
   inkscape:export-xdpi="687.26941"
   inkscape:export-ydpi="687.26941"><metadata
     id="metadata19"><rdf:RDF><cc:Work
         rdf:about=""><dc:format>image/svg+xml</dc:format><dc:type
           rdf:resource="http://purl.org/dc/dcmitype/StillImage" /><dc:title /></cc:Work></rdf:RDF></metadata><defs
     id="defs17"><marker
       style="overflow:visible"
       id="Scissors"
       orient="auto"
       refY="0"
       refX="0"><path
         style="marker-start:none"
         id="schere"
         d="M 9.0898857,-3.6061018 C 8.1198849,-4.7769976 6.3697607,-4.7358294 5.0623558,-4.2327734 l -8.2124046,3.0779029 c -2.3882933,-1.3067135 -4.7482873,-0.9325372 -4.7482873,-1.5687873 0,-0.4973164 0.4566662,-0.3883222 0.3883068,-1.6831941 -0.065635,-1.2432767 -1.3635771,-2.1630796 -2.5903987,-2.0816435 -1.227271,-0.00735 -2.499439,0.9331613 -2.510341,2.2300611 -0.09143,1.3063864 1.007209,2.5196896 2.306764,2.6052316 1.5223406,0.2266616 4.218258,-0.6955566 5.482945,1.57086006 -0.9422847,1.73825774 -2.6140244,1.74307674 -4.1255107,1.65607034 -1.2548743,-0.072235 -2.7620933,0.2873979 -3.3606483,1.5208605 -0.578367,1.1820862 -0.0112,2.8646022 1.316749,3.226412 1.3401912,0.4918277 3.1806689,-0.129711 3.4993722,-1.6707242 0.2456585,-1.187823 -0.5953659,-1.7459574 -0.2725074,-2.1771537 0.2436135,-0.32536 1.7907806,-0.1368452 4.5471053,-1.3748244 L 5.6763468,4.2330688 C 6.8000164,4.5467672 8.1730685,4.5362646 9.1684433,3.4313614 l -9.22008423,-3.48508362 z m -18.3078016,-1.900504 c 1.294559,0.7227998 1.1888392,2.6835702 -0.1564272,3.0632889 -1.2165179,0.423661 -2.7710269,-0.7589694 -2.3831779,-2.0774648 0.227148,-1.0818519 1.653387,-1.480632 2.5396051,-0.9858241 z m 0.056264,8.0173649 c 1.3508301,0.4988648 1.1214429,2.7844356 -0.2522207,3.091609 -0.9110594,0.3163391 -2.2135494,-0.1387976 -2.3056964,-1.2121394 -0.177609,-1.305055 1.356085,-2.4841482 2.5579171,-1.8794696 z"
         inkscape:connector-curvature="0" /></marker></defs><sodipodi:namedview
     pagecolor="#ffffff"
     bordercolor="#666666"
     borderopacity="1"
     objecttolerance="10"
     gridtolerance="10"
     guidetolerance="10"
     inkscape:pageopacity="0"
     inkscape:pageshadow="2"
     inkscape:window-width="1525"
     inkscape:window-height="1011"
     id="namedview15"
     showgrid="false"
     inkscape:zoom="1.7451366"
     inkscape:cx="113.2683"
     inkscape:cy="113.96378"
     inkscape:window-x="2117"
     inkscape:window-y="0"
     inkscape:window-maximized="0"
     inkscape:current-layer="Calque_1" /><g
     id="g12"
     transform="matrix(0.5,0,0,0.5,-3.7227368,16.957815)"><path
       d="M 230.555,35.538 C 223.736,27.341 211.214,23.355 192.274,23.355 H 141.409 L 128.791,91.44 78.234,91.416 72.596,117.7 H 15.662 l 85.117,27.188 5.786,-24.639 h 16.886 l -13.938,75.239 h 53.844 c 33.472,0 53.832,-14.405 58.877,-41.662 l 2.517,-13.625 c 3.34,-18.004 -1.253,-29.919 -14.032,-36.256 13.067,-6.203 20.647,-16.896 23.688,-33.253 l 1.107,-5.972 c 2.366,-12.781 0.744,-22.327 -4.959,-29.182 z m -42.667,102.096 -2.7,14.568 c -1.923,10.418 -6.802,14.479 -17.403,14.479 h -15.583 l 8.603,-46.449 h 12.371 c 7.107,0 11.392,1.172 13.484,3.689 2.074,2.496 2.476,6.98 1.228,13.713 z m 9.955,-71.184 -1.725,9.312 c -2.036,10.986 -8.102,15.674 -20.282,15.674 h -9.697 l 7.277,-39.296 h 13.554 c 4.844,0 8.015,0.98 9.693,2.999 1.802,2.167 2.189,5.868 1.18,11.311 z"
       id="path2"
       inkscape:connector-curvature="0"
       style="fill:#262626" /></g><g
     id="layer1"
     transform="matrix(0,-0.5823085,0.5823085,0,-465.10225,114.36424)"
     style="fill:#262626;fill-opacity:1"><g
       id="g4593"
       transform="matrix(4.2610846,-1.2351263,1.2351263,4.2610846,-1337.7659,-2994.9736)"
       style="fill:#262626;fill-opacity:1"><path
         style="fill:#262626;fill-opacity:1;marker-start:none"
         id="path4599"
         d="m 59.731665,956.40057 c -0.609784,-1.39286 -2.303491,-1.83556 -3.698902,-1.71226 l -8.742604,0.69566 c -1.935736,-1.91425 -4.307466,-2.2049 -4.132136,-2.81651 0.137044,-0.47806 0.545993,-0.24745 0.837105,-1.51102 0.279511,-1.21323 -0.714709,-2.45509 -1.916471,-2.71488 -1.177727,-0.34526 -2.659814,0.20827 -3.027677,1.45195 -0.447882,1.23061 0.273869,2.69969 1.499535,3.14003 1.400938,0.6374 4.246607,0.49379 4.837778,3.02096 -1.384807,1.41129 -2.993148,0.95525 -4.422137,0.4551 -1.186382,-0.41524 -2.734347,-0.48487 -3.649629,0.53589 -0.881717,0.97694 -0.800158,2.7506 0.376675,3.46434 1.15277,0.8421 3.093263,0.7518 3.824279,-0.64172 0.563472,-1.07414 -0.09119,-1.84242 0.337995,-2.16796 0.32384,-0.24563 1.759155,0.36194 4.749906,-0.0686 l 7.684693,5.46398 c 0.993719,0.61119 2.316503,0.97947 3.577814,0.19164 l -7.902726,-5.8909 9.766502,-0.89574 z m -17.075242,-6.87194 c 1.045256,1.05155 0.403306,2.90727 -0.994512,2.90157 -1.286163,0.072 -2.454591,-1.49318 -1.718425,-2.65375 0.516476,-0.97737 1.997384,-0.96769 2.712937,-0.24782 z m -2.155235,7.72245 c 1.161058,0.85179 0.310724,2.98566 -1.0944,2.9024 -0.962958,0.053 -2.089598,-0.7434 -1.882399,-1.80058 0.188897,-1.30347 1.988129,-2.01427 2.976799,-1.10182 z"
         inkscape:connector-curvature="0" /></g></g><path
     style="fill:none;stroke:#262626;stroke-width:4.5999999;stroke-linecap:butt;stroke-linejoin:miter;stroke-miterlimit:4;stroke-dasharray:13.8, 4.6;stroke-dashoffset:0;stroke-opacity:1"
     d="M 130.16474,62.720543 V 17.826738 H 43.788089"
     id="path4532"
     inkscape:connector-curvature="0"
     sodipodi:nodetypes="ccc" /></svg>