<?xml version="1.0" encoding="UTF-8" standalone="no"?>
<!-- Generator: Adobe Illustrator 14.0.0, SVG Export Plug-In . SVG Version: 6.00 Build 43363)  -->

<svg
   xmlns:dc="http://purl.org/dc/elements/1.1/"
   xmlns:cc="http://creativecommons.org/ns#"
   xmlns:rdf="http://www.w3.org/1999/02/22-rdf-syntax-ns#"
   xmlns:svg="http://www.w3.org/2000/svg"
   xmlns="http://www.w3.org/2000/svg"
   xmlns:sodipodi="http://sodipodi.sourceforge.net/DTD/sodipodi-0.dtd"
   xmlns:inkscape="http://www.inkscape.org/namespaces/inkscape"
   version="1.1"
   id="Calque_1"
   x="0px"
   y="0px"
   width="400"
   height="200"
   viewBox="0 0 399.99998 199.99999"
   enable-background="new 0 0 700.465 218.988"
   xml:space="preserve"
   sodipodi:docname="burst-coupon.svg"
   inkscape:version="0.92.1 r15371"
   inkscape:export-filename="E:\C++\BurstCoupon-git\trunk\Source\img\text4498.png"
   inkscape:export-xdpi="144"
   inkscape:export-ydpi="144"><metadata
     id="metadata19"><rdf:RDF><cc:Work
         rdf:about=""><dc:format>image/svg+xml</dc:format><dc:type
           rdf:resource="http://purl.org/dc/dcmitype/StillImage" /><dc:title></dc:title></cc:Work></rdf:RDF></metadata><defs
     id="defs17"><marker
       style="overflow:visible"
       id="Scissors"
       orient="auto"
       refY="0"
       refX="0"><path
         style="marker-start:none"
         id="schere"
         d="M 9.0898857,-3.6061018 C 8.1198849,-4.7769976 6.3697607,-4.7358294 5.0623558,-4.2327734 l -8.2124046,3.0779029 c -2.3882933,-1.3067135 -4.7482873,-0.9325372 -4.7482873,-1.5687873 0,-0.4973164 0.4566662,-0.3883222 0.3883068,-1.6831941 -0.065635,-1.2432767 -1.3635771,-2.1630796 -2.5903987,-2.0816435 -1.227271,-0.00735 -2.499439,0.9331613 -2.510341,2.2300611 -0.09143,1.3063864 1.007209,2.5196896 2.306764,2.6052316 1.5223406,0.2266616 4.218258,-0.6955566 5.482945,1.57086006 -0.9422847,1.73825774 -2.6140244,1.74307674 -4.1255107,1.65607034 -1.2548743,-0.072235 -2.7620933,0.2873979 -3.3606483,1.5208605 -0.578367,1.1820862 -0.0112,2.8646022 1.316749,3.226412 1.3401912,0.4918277 3.1806689,-0.129711 3.4993722,-1.6707242 0.2456585,-1.187823 -0.5953659,-1.7459574 -0.2725074,-2.1771537 0.2436135,-0.32536 1.7907806,-0.1368452 4.5471053,-1.3748244 L 5.6763468,4.2330688 C 6.8000164,4.5467672 8.1730685,4.5362646 9.1684433,3.4313614 l -9.22008423,-3.48508362 z m -18.3078016,-1.900504 c 1.294559,0.7227998 1.1888392,2.6835702 -0.1564272,3.0632889 -1.2165179,0.423661 -2.7710269,-0.7589694 -2.3831779,-2.0774648 0.227148,-1.0818519 1.653387,-1.480632 2.5396051,-0.9858241 z m 0.056264,8.0173649 c 1.3508301,0.4988648 1.1214429,2.7844356 -0.2522207,3.091609 -0.9110594,0.3163391 -2.2135494,-0.1387976 -2.3056964,-1.2121394 -0.177609,-1.305055 1.356085,-2.4841482 2.5579171,-1.8794696 z"
         inkscape:connector-curvature="0" /></marker></defs><sodipodi:namedview
     pagecolor="#ffffff"
     bordercolor="#666666"
     borderopacity="1"
     objecttolerance="10"
     gridtolerance="10"
     guidetolerance="10"
     inkscape:pageopacity="0"
     inkscape:pageshadow="2"
     inkscape:window-width="1525"
     inkscape:window-height="1011"
     id="namedview15"
     showgrid="false"
     inkscape:zoom="1.7451366"
     inkscape:cx="230.73761"
     inkscape:cy="113.96378"
     inkscape:window-x="2117"
     inkscape:window-y="0"
     inkscape:window-maximized="0"
     inkscape:current-layer="g4536" /><g
     id="g12"
     transform="matrix(0.5,0,0,0.5,3.1535158,31.283341)"><path
       d="M 230.555,35.538 C 223.736,27.341 211.214,23.355 192.274,23.355 H 141.409 L 128.791,91.44 78.234,91.416 72.596,117.7 H 15.662 l 85.117,27.188 5.786,-24.639 h 16.886 l -13.938,75.239 h 53.844 c 33.472,0 53.832,-14.405 58.877,-41.662 l 2.517,-13.625 c 3.34,-18.004 -1.253,-29.919 -14.032,-36.256 13.067,-6.203 20.647,-16.896 23.688,-33.253 l 1.107,-5.972 c 2.366,-12.781 0.744,-22.327 -4.959,-29.182 z m -42.667,102.096 -2.7,14.568 c -1.923,10.418 -6.802,14.479 -17.403,14.479 h -15.583 l 8.603,-46.449 h 12.371 c 7.107,0 11.392,1.172 13.484,3.689 2.074,2.496 2.476,6.98 1.228,13.713 z m 9.955,-71.184 -1.725,9.312 c -2.036,10.986 -8.102,15.674 -20.282,15.674 h -9.697 l 7.277,-39.296 h 13.554 c 4.844,0 8.015,0.98 9.693,2.999 1.802,2.167 2.189,5.868 1.18,11.311 z"
       id="path2"
       inkscape:connector-curvature="0"
       style="fill:#262626" /><path
       d="m 271.524,197.642 c -17.253,0 -29.665,-4.39 -36.89,-13.049 -6.434,-7.711 -8.456,-18.438 -6.009,-31.878 L 252.194,23.4 h 37.28 l -24.03,131.862 c -0.853,4.679 -0.407,8.104 1.325,10.18 1.752,2.101 5.128,3.165 10.035,3.165 10.161,0 15.49,-4.387 17.28,-14.224 L 317.957,23.4 h 35.518 l -23.722,130.194 c -5.18,28.405 -25.859,44.048 -58.229,44.048 z"
       id="path4"
       inkscape:connector-curvature="0"
       style="fill:#262626" /><path
       d="M 452.206,35.562 C 445.378,27.375 432.872,23.395 413.975,23.395 H 363.2 l -31.354,172.087 h 37.27 l 12.411,-68.059 h 9.106 c 6.761,0 11.125,1.293 13.343,3.951 2.284,2.738 2.778,7.452 1.51,14.407 l -4.795,26.266 c -2.524,13.869 -1.85,16.823 -0.826,21.295 l 0.488,2.14 h 38.252 l -1.098,-3.238 c -1.94,-5.727 -1.159,-11.271 0.256,-19.075 l 4.706,-25.795 c 2.146,-11.759 3.04,-27.73 -11.729,-35.911 13.231,-6.252 21.136,-17.29 24.1,-33.592 l 2.395,-13.124 c 2.33,-12.788 0.686,-22.333 -5.029,-29.185 z M 419.65,66.49 416.64,82.976 c -1.998,10.976 -8.035,15.656 -20.184,15.656 h -9.688 l 8.472,-46.444 h 13.514 c 4.83,0 7.996,0.979 9.679,2.996 1.81,2.167 2.208,5.866 1.217,11.306 z"
       id="path6"
       inkscape:connector-curvature="0"
       style="fill:#262626" /><path
       d="m 490.253,197.396 c -17.255,0 -29.666,-4.39 -36.889,-13.047 -6.434,-7.709 -8.452,-18.433 -6.005,-31.874 l 2.243,-12.276 h 35.512 l -2.704,14.824 c -0.853,4.683 -0.404,8.109 1.329,10.188 1.753,2.102 5.129,3.167 10.032,3.167 10.162,0 15.491,-4.391 17.277,-14.232 1.847,-10.104 -0.758,-18.132 -20.116,-33.966 -23.341,-19.223 -30.616,-34.031 -26.855,-54.643 5.178,-28.404 25.646,-44.048 57.634,-44.048 16.979,0 29.205,4.336 36.339,12.885 6.433,7.708 8.442,18.488 5.977,32.042 l -1.328,7.268 H 527.19 l 1.78,-9.815 c 0.9,-4.938 0.474,-8.5 -1.271,-10.593 -1.682,-2.016 -4.771,-2.995 -9.447,-2.995 -9.756,0 -14.921,4.462 -16.746,14.466 -1.839,10.104 0.77,18.132 20.126,33.967 23.338,19.217 30.614,34.024 26.854,54.643 -5.189,28.398 -25.87,44.039 -58.233,44.039 z"
       id="path8"
       inkscape:connector-curvature="0"
       style="fill:#262626" /><path
       d="m 613.053,195.481 h -37.276 l 26.11,-143.293 h -33.769 l 5.26,-28.789 h 104.796 l -5.248,28.789 h -33.757 z"
       id="path10"
       inkscape:connector-curvature="0"
       style="fill:#262626" /></g><g
     id="g4536"
     transform="translate(0,-18.988007)"><g
       aria-label="Coupon"
       transform="matrix(1.0828382,0,-0.16283779,0.92349901,-63.919715,22.798221)"
       style="font-style:normal;font-variant:normal;font-weight:normal;font-stretch:normal;font-size:65.24863434px;line-height:1.25;font-family:'Christmas Card';-inkscape-font-specification:'Christmas Card';letter-spacing:0px;word-spacing:0px;fill:#262626;fill-opacity:1;stroke:none;stroke-width:1.63121581"
       id="text4498"><path
         d="m 224.70225,187.20592 q -5.15465,0 -7.89509,-2.93619 -2.67519,-2.93618 -2.67519,-8.28657 v -24.53349 q 0,-5.35039 2.67519,-8.28658 2.74044,-2.93618 7.89509,-2.93618 5.15464,0 7.82983,2.93618 2.74044,2.93619 2.74044,8.28658 v 4.8284 h -6.78585 v -5.28514 q 0,-4.24116 -3.58868,-4.24116 -3.58867,0 -3.58867,4.24116 v 25.51222 q 0,4.17591 3.58867,4.17591 3.58868,0 3.58868,-4.17591 v -6.98161 h 6.78585 v 6.45962 q 0,5.35039 -2.74044,8.28657 -2.67519,2.93619 -7.82983,2.93619 z"
         style="font-style:normal;font-variant:normal;font-weight:normal;font-stretch:normal;font-family:'Bebas Neue';-inkscape-font-specification:'Bebas Neue';fill:#262626;fill-opacity:1;stroke-width:1.63121581"
         id="path4538"
         inkscape:connector-curvature="0" /><path
         d="m 250.06867,187.20592 q -5.28514,0 -8.09083,-3.00143 -2.80569,-3.00144 -2.80569,-8.48233 v -24.01149 q 0,-5.48089 2.80569,-8.48233 2.80569,-3.00143 8.09083,-3.00143 5.28514,0 8.09083,3.00143 2.80569,3.00144 2.80569,8.48233 v 24.01149 q 0,5.48089 -2.80569,8.48233 -2.80569,3.00143 -8.09083,3.00143 z m 0,-6.52486 q 3.71917,0 3.71917,-4.50216 v -24.92497 q 0,-4.50216 -3.71917,-4.50216 -3.71917,0 -3.71917,4.50216 v 24.92497 q 0,4.50216 3.71917,4.50216 z"
         style="font-style:normal;font-variant:normal;font-weight:normal;font-stretch:normal;font-family:'Bebas Neue';-inkscape-font-specification:'Bebas Neue';fill:#262626;fill-opacity:1;stroke-width:1.63121581"
         id="path4540"
         inkscape:connector-curvature="0" /><path
         d="m 276.25886,187.20592 q -5.21989,0 -7.96033,-2.93619 -2.74044,-3.00143 -2.74044,-8.54757 v -34.84277 h 7.17735 v 35.36476 q 0,2.34895 0.91348,3.39293 0.97873,1.04398 2.74044,1.04398 1.76171,0 2.67519,-1.04398 0.97873,-1.04398 0.97873,-3.39293 v -35.36476 h 6.91636 v 34.84277 q 0,5.54614 -2.74044,8.54757 -2.74045,2.93619 -7.96034,2.93619 z"
         style="font-style:normal;font-variant:normal;font-weight:normal;font-stretch:normal;font-family:'Bebas Neue';-inkscape-font-specification:'Bebas Neue';fill:#262626;fill-opacity:1;stroke-width:1.63121581"
         id="path4542"
         inkscape:connector-curvature="0" /><path
         d="m 292.07146,140.87939 h 10.57028 q 5.35039,0 8.02559,2.87094 2.67519,2.87094 2.67519,8.41708 v 4.50215 q 0,5.54614 -2.67519,8.41708 -2.6752,2.87094 -8.02559,2.87094 h -3.39293 v 18.59586 h -7.17735 z m 10.57028,20.55332 q 1.76172,0 2.60995,-0.97873 0.91348,-0.97873 0.91348,-3.32768 v -5.41563 q 0,-2.34896 -0.91348,-3.32768 -0.84823,-0.97873 -2.60995,-0.97873 h -3.39293 v 14.02845 z"
         style="font-style:normal;font-variant:normal;font-weight:normal;font-stretch:normal;font-family:'Bebas Neue';-inkscape-font-specification:'Bebas Neue';fill:#262626;fill-opacity:1;stroke-width:1.63121581"
         id="path4544"
         inkscape:connector-curvature="0" /><path
         d="m 327.67886,187.20592 q -5.28514,0 -8.09083,-3.00143 -2.80569,-3.00144 -2.80569,-8.48233 v -24.01149 q 0,-5.48089 2.80569,-8.48233 2.80569,-3.00143 8.09083,-3.00143 5.28514,0 8.09083,3.00143 2.80569,3.00144 2.80569,8.48233 v 24.01149 q 0,5.48089 -2.80569,8.48233 -2.80569,3.00143 -8.09083,3.00143 z m 0,-6.52486 q 3.71917,0 3.71917,-4.50216 v -24.92497 q 0,-4.50216 -3.71917,-4.50216 -3.71917,0 -3.71917,4.50216 v 24.92497 q 0,4.50216 3.71917,4.50216 z"
         style="font-style:normal;font-variant:normal;font-weight:normal;font-stretch:normal;font-family:'Bebas Neue';-inkscape-font-specification:'Bebas Neue';fill:#262626;fill-opacity:1;stroke-width:1.63121581"
         id="path4546"
         inkscape:connector-curvature="0" /><path
         d="m 343.42927,140.87939 h 9.00431 l 6.9816,27.33918 h 0.1305 v -27.33918 h 6.39437 v 45.67405 h -7.3731 l -8.61282,-33.34206 h -0.1305 v 33.34206 h -6.39436 z"
         style="font-style:normal;font-variant:normal;font-weight:normal;font-stretch:normal;font-family:'Bebas Neue';-inkscape-font-specification:'Bebas Neue';fill:#262626;fill-opacity:1;stroke-width:1.63121581"
         id="path4548"
         inkscape:connector-curvature="0" /></g></g><g
     id="layer1"
     transform="matrix(0,-1.164617,1.164617,0,-834.61664,177.62673)"
     style="fill:#262626;fill-opacity:1"><g
       id="g4593"
       transform="matrix(4.2610846,-1.2351263,1.2351263,4.2610846,-1337.7659,-2994.9736)"
       style="fill:#262626;fill-opacity:1"><path
         style="fill:#262626;fill-opacity:1;marker-start:none"
         id="path4599"
         d="m 59.731665,956.40057 c -0.609784,-1.39286 -2.303491,-1.83556 -3.698902,-1.71226 l -8.742604,0.69566 c -1.935736,-1.91425 -4.307466,-2.2049 -4.132136,-2.81651 0.137044,-0.47806 0.545993,-0.24745 0.837105,-1.51102 0.279511,-1.21323 -0.714709,-2.45509 -1.916471,-2.71488 -1.177727,-0.34526 -2.659814,0.20827 -3.027677,1.45195 -0.447882,1.23061 0.273869,2.69969 1.499535,3.14003 1.400938,0.6374 4.246607,0.49379 4.837778,3.02096 -1.384807,1.41129 -2.993148,0.95525 -4.422137,0.4551 -1.186382,-0.41524 -2.734347,-0.48487 -3.649629,0.53589 -0.881717,0.97694 -0.800158,2.7506 0.376675,3.46434 1.15277,0.8421 3.093263,0.7518 3.824279,-0.64172 0.563472,-1.07414 -0.09119,-1.84242 0.337995,-2.16796 0.32384,-0.24563 1.759155,0.36194 4.749906,-0.0686 l 7.684693,5.46398 c 0.993719,0.61119 2.316503,0.97947 3.577814,0.19164 l -7.902726,-5.8909 9.766502,-0.89574 z m -17.075242,-6.87194 c 1.045256,1.05155 0.403306,2.90727 -0.994512,2.90157 -1.286163,0.072 -2.454591,-1.49318 -1.718425,-2.65375 0.516476,-0.97737 1.997384,-0.96769 2.712937,-0.24782 z m -2.155235,7.72245 c 1.161058,0.85179 0.310724,2.98566 -1.0944,2.9024 -0.962958,0.053 -2.089598,-0.7434 -1.882399,-1.80058 0.188897,-1.30347 1.988129,-2.01427 2.976799,-1.10182 z"
         inkscape:connector-curvature="0" /></g></g><path
     style="fill:none;stroke:#262626;stroke-width:4.5999999;stroke-linecap:butt;stroke-linejoin:miter;stroke-miterlimit:4;stroke-dasharray:13.8, 4.6;stroke-dashoffset:0;stroke-opacity:1"
     d="M 356.16023,90.843163 V 29.050811 H 44.013285"
     id="path4532"
     inkscape:connector-curvature="0" /></svg>